<?xml version="1.0" encoding="utf-8"?>
<!-- Generator: Adobe Illustrator 27.5.0, SVG Export Plug-In . SVG Version: 6.00 Build 0)  -->
<svg version="1.1" xmlns="http://www.w3.org/2000/svg" xmlns:xlink="http://www.w3.org/1999/xlink" x="0px" y="0px"
	 viewBox="0 0 500 500" style="enable-background:new 0 0 500 500;" xml:space="preserve">
<g id="BACKGROUND">
</g>
<g id="OBJECTS">
	<path style="fill:#EDEDED;" d="M383.807,231.963h-29.343c-15.092-132.439-206.952-132.344-221.951,0
		c-14.206-0.345-32.854-2.062-33.739,17.418c0-0.001,0,57.849,0,57.849c0.943,19.527,19.503,17.75,33.819,17.417
		c0,0.001,27.295,0.001,27.295,0.001c9.225,0,17.956,4.312,23.43,11.737c5.475,7.606,15.391,13.917,24.443,19.597
		c18.909,12.967,65.475,22.35,89.477,4.145c4.834-2.479,3.825-9.666-1.504-10.72c-12.191-2.368-23.775-4.822-40.338-12.465
		c0.28-0.178,0.561-0.358,0.826-0.557c5.526,3.653,18.902-1.573,24.475-2.851c9.477-2.174,16.409-3.932,22.313-5.491
		c7.49-1.978,15.163-3.15,22.904-3.421c18.836-0.66,42.583,0.582,57.892,0.026c9.619,0.001,17.417-7.797,17.417-17.416v-57.85
		C401.225,239.761,393.427,231.963,383.807,231.963z"/>
	<path style="fill:#424242;" d="M166.692,179.146c4.048,6.987,9.13-11.751,9.13-11.751l5.399-8.689l-4.224-5.418
		c-2.425,1.718-4.783,3.542-7.069,5.475C169.441,159.678,162.791,172.412,166.692,179.146z"/>
	<path style="fill:#424242;" d="M140.114,243.175c0-57.092,46.282-103.375,103.375-103.375s103.375,46.283,103.375,103.375"/>
	<g>
		<g>
			<polygon points="243.737,147.631 243.237,241.075 242.737,147.631 243.737,147.631 			"/>
		</g>
		<g>
			<polygon points="235.591,147.943 243.237,241.075 234.595,148.03 235.591,147.943 			"/>
		</g>
		<g>
			<polygon points="227.503,148.964 243.237,241.075 226.518,149.137 227.503,148.964 			"/>
		</g>
		<g>
			<polygon points="219.535,150.686 243.237,241.075 218.569,150.944 219.535,150.686 			"/>
		</g>
		<g>
			<polygon points="211.747,153.095 243.237,241.075 210.808,153.437 211.747,153.095 			"/>
		</g>
		<g>
			<polygon points="204.199,156.175 243.237,241.075 203.293,156.597 204.199,156.175 			"/>
		</g>
		<g>
			<polygon points="196.948,159.9 243.237,241.075 196.082,160.4 196.948,159.9 			"/>
		</g>
		<g>
			<polygon points="190.049,164.243 243.237,241.075 189.23,164.817 190.049,164.243 			"/>
		</g>
		<g>
			<polygon points="183.556,169.171 243.237,241.075 182.789,169.814 183.556,169.171 			"/>
		</g>
		<g>
			<polygon points="177.516,174.647 243.237,241.075 176.809,175.354 177.516,174.647 			"/>
		</g>
		<g>
			<polygon points="171.976,180.627 243.237,241.075 171.334,181.393 171.976,180.627 			"/>
		</g>
		<g>
			<polygon points="166.979,187.068 243.237,241.075 166.406,187.887 166.979,187.068 			"/>
		</g>
		<g>
			<polygon points="162.562,193.92 243.237,241.075 162.062,194.786 162.562,193.92 			"/>
		</g>
		<g>
			<polygon points="158.759,201.131 243.237,241.075 158.337,202.037 158.759,201.131 			"/>
		</g>
		<g>
			<polygon points="155.6,208.645 243.237,241.075 155.257,209.585 155.6,208.645 			"/>
		</g>
		<g>
			<polygon points="153.107,216.407 243.237,241.075 152.848,217.373 153.107,216.407 			"/>
		</g>
		<g>
			<polygon points="151.3,224.356 243.237,241.075 151.126,225.341 151.3,224.356 			"/>
		</g>
		<g>
			<polygon points="150.192,232.433 243.237,241.075 150.105,233.429 150.192,232.433 			"/>
		</g>
		<g>
			<polygon points="336.369,233.429 243.237,241.075 336.282,232.433 336.369,233.429 			"/>
		</g>
		<g>
			<polygon points="335.348,225.341 243.237,241.075 335.175,224.356 335.348,225.341 			"/>
		</g>
		<g>
			<polygon points="333.627,217.373 243.237,241.075 333.368,216.407 333.627,217.373 			"/>
		</g>
		<g>
			<polygon points="331.217,209.585 243.237,241.075 330.875,208.645 331.217,209.585 			"/>
		</g>
		<g>
			<polygon points="328.137,202.037 243.237,241.075 327.715,201.131 328.137,202.037 			"/>
		</g>
		<g>
			<polygon points="324.412,194.786 243.237,241.075 323.912,193.92 324.412,194.786 			"/>
		</g>
		<g>
			<polygon points="320.069,187.887 243.237,241.075 319.495,187.068 320.069,187.887 			"/>
		</g>
		<g>
			<polygon points="315.141,181.393 243.237,241.075 314.498,180.627 315.141,181.393 			"/>
		</g>
		<g>
			<polygon points="309.666,175.354 243.237,241.075 308.959,174.647 309.666,175.354 			"/>
		</g>
		<g>
			<polygon points="303.685,169.814 243.237,241.075 302.919,169.171 303.685,169.814 			"/>
		</g>
		<g>
			<polygon points="297.244,164.817 243.237,241.075 296.425,164.243 297.244,164.817 			"/>
		</g>
		<g>
			<polygon points="290.392,160.4 243.237,241.075 289.526,159.9 290.392,160.4 			"/>
		</g>
		<g>
			<polygon points="283.181,156.597 243.237,241.075 282.275,156.175 283.181,156.597 			"/>
		</g>
		<g>
			<polygon points="275.667,153.437 243.237,241.075 274.727,153.095 275.667,153.437 			"/>
		</g>
		<g>
			<polygon points="267.905,150.944 243.237,241.075 266.939,150.686 267.905,150.944 			"/>
		</g>
		<g>
			<polygon points="259.956,149.137 243.237,241.075 258.971,148.964 259.956,149.137 			"/>
		</g>
		<g>
			<polygon points="251.879,148.03 243.237,241.075 250.883,147.943 251.879,148.03 			"/>
		</g>
	</g>
	<path style="fill:#EDEDED;" d="M319.071,229.394c1.535-0.63,5.671-12.43,7.605-17.82c1.934-5.39,6.022-16.288,5.511-16.612
		c-1.111-0.702-5.85,11.719-8.52,18.869c-2.669,7.149-4.374,8.186-4.79,6.899c-0.416-1.286,12.373-28.848,10.759-29.298
		c-1.139-0.317-7.417,15.594-10.514,22.247c-3.098,6.653-3.413,5.885-4.033,5.467c-0.62-0.418,12.219-28.608,10.911-29.155
		c-0.789-0.33-7.432,13.601-10.733,21.123c-3.302,7.521-3.29,7.367-4.316,6.779c-1.026-0.588,13.546-29.881,10.582-27.226
		c-2.212,1.982-15.673,30.661-14.875,33.697c0.607,2.309,1.292,5.386,1.584,6.727c0.096,0.438,0.054,0.889-0.121,1.303
		c-0.618,1.462-2.256,5.32-4.292,10.019c-0.108-0.038-0.236-0.083-0.332-0.117c-0.486-0.167-1.013,0.039-1.256,0.492
		c-2.97,5.54-16.365,33.227-19.357,47.206c-0.684,3.195-0.765,5.706,0.833,6.374c1.227,0.513,2.335-0.018,4.299-3.131
		c7.869-12.474,17.876-42.518,19.791-48.184c0.167-0.493-0.05-1.031-0.515-1.263c-0.155-0.077-0.347-0.159-0.527-0.24
		c2.664-5.712,4.764-10.11,4.866-10.352C311.91,232.521,317.536,230.025,319.071,229.394z"/>
	<path style="fill:#EDEDED;" d="M306.536,187l-28.37,66.986l0.026,0.009c-0.259,0.61-7.384,17.385-13.963,32.56
		c-2.12,4.891,5.208,5.505,7.298,1.146c2.09-4.359,2.855-9.255,5.527-14.057c2.653-4.767,5.304-9.093,7.726-17.267l1.438,0.52
		c0.467,0.169,1.099-0.294,1.429-1.048C291.787,246.397,315.846,190.42,306.536,187z"/>
	<path style="fill:#424242;" d="M385.124,316.488H114.876c-4.385,0-7.94-3.555-7.94-7.941v-60.483c0-4.385,3.555-7.94,7.94-7.94
		h270.248c4.385,0,7.94,3.555,7.94,7.94v60.483C393.064,312.933,389.509,316.488,385.124,316.488z"/>
	<g>
		<g>
			<path style="fill:#91991A;" d="M191.96,308.58c-2.461-2.517-6.17-7.121-6.083-11.969c0,0-1.087-1.351-2.331,0.384
				c-1.113,1.551,1.012,7.809,7.903,12.122c-5.194,5.579-1.313,11.389-1.313,11.389l17.943-11.149
				C208.079,309.356,197.787,303.086,191.96,308.58z"/>
			<path style="fill:#C15F34;" d="M287.299,356.057c0,0-42.789-8.413-57.219-27.919c-14.43-19.506-17.386-23.143-26.463-20.661
				c-9.077,2.481-20.08,8.836-16.603,19.75C190.492,338.141,244.031,378.257,287.299,356.057z"/>
			<path style="fill:#EDEDED;" d="M210.047,311.195c0.269,2.836,1.375,5.386,2.621,7.843c1.355,2.394,2.869,4.742,4.955,6.657
				c2.085,1.924,4.685,3.377,6.723,5.237c2.123,1.796,3.895,3.884,5.694,6.032c1.709,2.236,3.765,4.188,5.945,5.997
				c2.236,1.741,4.446,3.571,7.016,4.887c5.035,2.765,10.695,4.554,16.561,5.041l0.205-0.499c-4.493-3.686-9.108-6.374-13.56-9.387
				c-2.31-1.363-4.613-2.728-6.973-4.065c-1.178-0.671-2.268-1.454-3.473-2.113c-1.194-0.674-2.453-1.29-3.621-2.023
				c-2.451-1.344-4.624-3.043-6.44-5.038c-1.76-2.053-2.904-4.558-4.306-6.792c-1.42-2.224-3.196-4.17-4.967-6.167
				c-1.811-1.973-3.635-3.939-5.855-5.827L210.047,311.195z"/>
		</g>
		<g>
			<path style="fill:#424242;" d="M187.628,321.394c15.072,24.321,44.645,35.022,72.093,36.684c3.532,0.258,8.46,0.347,12.035,0.367
				c0,0-6.027,0.195-6.027,0.195C236.212,359.063,202.849,348.473,187.628,321.394L187.628,321.394z"/>
		</g>
	</g>
	<g>
		<g>
			<path style="fill:#EDEDED;" d="M209.807,217.484c0,0-1.97-14.151-9.968-22.64c0,0-42.989-0.67-24.046-34.55
				c0,0-17.817-35.732,17.815-46.608c26.922-8.217,37.834,6.393,37.834,6.393s28.826-4.962,34.578,12.926
				c3.821,11.882-11.902,15.469-11.902,15.469s12.027,26.42,20.05,51.288C274.169,199.762,226.622,225.126,209.807,217.484z"/>
			<g>
				<path style="fill:#424242;" d="M231.443,120.078c6.551,2.93,9.114,11.108,8.104,17.8c-0.184,0.968-0.398,1.926-0.681,2.86
					c-0.159-0.981-0.209-1.937-0.3-2.884C237.903,131.337,236.152,125.012,231.443,120.078L231.443,120.078z"/>
			</g>
			<g>
				<path style="fill:#424242;" d="M191.071,171.222c-6.317,1.977-12.432-3.389-15.376-8.538c-1.389-2.747-1.408-2.834,0.782-0.595
					C180.65,166.103,185.038,170.507,191.071,171.222L191.071,171.222z"/>
			</g>
		</g>
		<path style="fill:#EDEDED;" d="M206.995,206.835c0,0-9.919-0.894-9.817,5.898c0.023,1.515,2.929,20.268,4.797,22.547
			c6.048,7.379,38.005,6.149,69.752-3.443c31.747-9.592,11.451-42.057,8.923-42.058c-2.528-0.001-9.304,1.368-9.304,1.368
			L206.995,206.835z"/>
		<g>
			<path style="fill:#424242;" d="M271.346,191.146c-18.169,12.688-42.38,18.766-64.351,15.689
				C229.367,207.015,251.515,201.471,271.346,191.146L271.346,191.146z"/>
		</g>
		<g>
			<path style="fill:#424242;" d="M239.688,162.687c-9.092,12.618-23.054,27.794-38.717,31.396c0,0-0.216-1.959-0.216-1.959
				c14.326-0.833,29.792-6.454,37.625-19.203c-6.777,13.898-22.858,20.305-37.585,21.181c-1.217,0.047-1.424-1.738-0.216-1.959
				c3.936-0.867,7.733-2.516,11.257-4.637C222.521,181.055,231.482,172.031,239.688,162.687L239.688,162.687z"/>
		</g>
		<g>
			<path style="fill:#C15F34;" d="M201.975,232.902c2.398-6.025,4.92-11.997,7.374-17.997c0.124-0.314,0.544-0.405,0.788-0.174
				l16.377,13.995l-1.204,0.148c1.611-2.438,3.283-4.833,4.921-7.251l4.939-7.239c0.296-0.437,0.907-0.535,1.325-0.213
				c5.38,4.063,10.815,8.056,16.15,12.179l-1.475,0.37l8.273-17.78c0.203-0.447,0.732-0.643,1.177-0.436
				c0.003,0.001,7.615,3.584,7.619,3.585l7.582,3.656l-1.017,0.526l1.926-9.717c0.648-3.245,1.273-6.495,1.957-9.734
				c0.049-0.23,0.275-0.378,0.505-0.329c3.561,4.208,6.782,8.863,10.172,13.264c-3.572-4.156-7.066-8.375-10.594-12.566l0.761-0.191
				c-0.861,5.644-2.371,13.813-3.302,19.536c-0.067,0.39-0.437,0.653-0.827,0.586c-3.958-1.676-11.615-5.218-15.525-7.005
				l1.18-0.434l-8.113,17.854c-0.248,0.564-0.991,0.749-1.476,0.37c-5.413-4.021-10.726-8.173-16.093-12.254l1.325-0.212
				c-2.943,4.228-7.128,10.232-10.068,14.381c-0.275,0.387-0.838,0.445-1.188,0.125l-15.966-14.463l0.788-0.174
				C207.498,221.17,204.798,227.063,201.975,232.902L201.975,232.902z"/>
		</g>
		<line style="fill:none;stroke:#EDEDED;stroke-miterlimit:10;" x1="206.301" y1="236.901" x2="205.107" y2="242.312"/>
		<line style="fill:none;stroke:#EDEDED;stroke-miterlimit:10;" x1="220.208" y1="239.542" x2="220.256" y2="245.083"/>
		<line style="fill:none;stroke:#EDEDED;stroke-miterlimit:10;" x1="235.191" y1="238.453" x2="235.807" y2="243.96"/>
		<line style="fill:none;stroke:#EDEDED;stroke-miterlimit:10;" x1="251.162" y1="235.768" x2="252.533" y2="241.137"/>
		<line style="fill:none;stroke:#EDEDED;stroke-miterlimit:10;" x1="265.528" y1="233.144" x2="268.144" y2="238.029"/>
		<line style="fill:none;stroke:#EDEDED;stroke-miterlimit:10;" x1="279.39" y1="227.324" x2="282.006" y2="232.209"/>
		<line style="fill:none;stroke:#EDEDED;stroke-miterlimit:10;" x1="286.641" y1="219.498" x2="291.03" y2="222.882"/>
		<g>
			<path style="fill:#C15F34;" d="M208.672,242.997c0.33,1.793-1.001,3.514-2.98,3.84c-1.979,0.326-3.843-0.881-4.154-2.694
				c-0.312-1.813,1.031-3.528,2.992-3.835C206.49,240.001,208.341,241.203,208.672,242.997z"/>
			<path style="fill:#91991A;" d="M223.691,246.048c0.37,1.75-0.918,3.463-2.884,3.823c-1.966,0.36-3.852-0.785-4.205-2.554
				c-0.353-1.77,0.947-3.478,2.896-3.818C221.447,243.158,223.321,244.298,223.691,246.048z"/>
			<path style="fill:#C15F34;" d="M239.611,245.289c0.408,1.706-0.838,3.411-2.791,3.804c-1.953,0.393-3.86-0.689-4.251-2.415
				c-0.392-1.726,0.866-3.426,2.802-3.8C237.307,242.505,239.202,243.583,239.611,245.289z"/>
			<path style="fill:#91991A;" d="M256.34,242.683c0.448,1.658-0.748,3.348-2.68,3.772c-1.932,0.424-3.854-0.595-4.286-2.273
				c-0.432-1.678,0.777-3.364,2.692-3.768C253.981,240.01,255.891,241.025,256.34,242.683z"/>
			<path style="fill:#C15F34;" d="M271.734,238.46c0.483,1.614-0.671,3.29-2.585,3.741c-1.913,0.451-3.849-0.511-4.315-2.146
				c-0.467-1.635,0.698-3.307,2.596-3.737C269.327,235.888,271.251,236.846,271.734,238.46z"/>
			<path style="fill:#91991A;" d="M286.32,233.079c0.516,1.569-0.59,3.225-2.479,3.697c-1.889,0.472-3.831-0.436-4.332-2.026
				c-0.501-1.59,0.617-3.243,2.49-3.694C283.873,230.605,285.804,231.51,286.32,233.079z"/>
			<path style="fill:#C15F34;" d="M295.702,222.849c0.54,1.535-0.53,3.173-2.397,3.657c-1.867,0.484-3.811-0.387-4.337-1.943
				c-0.525-1.556,0.556-3.191,2.408-3.654C293.228,220.446,295.161,221.314,295.702,222.849z"/>
		</g>
	</g>
</g>
<g id="TEXTS">
	
		<text transform="matrix(1 0 0 1 117.2456 301.0332)" style="fill:#EDEDED; font-family:'Staatliches-Regular'; font-size:72.0339px;">antojitos</text>
	<path style="fill:#424242;" d="M365.331,296.013c-0.129-0.55-0.335-1.071-0.613-1.551c0.094-0.184,0.178-0.377,0.251-0.577
		c0.359-0.989,0.423-2.048,0.185-3.066c-0.416-1.775-1.668-3.155-3.438-3.789c-0.733-0.262-1.505-0.395-2.292-0.395
		c-0.558,0-1.129,0.068-1.7,0.201c-1.148,0.27-2.26,0.785-3.307,1.533c-0.596,0.427-1.119,0.908-1.578,1.43
		c-0.957-0.715-2.108-1.107-3.325-1.107c-0.471,0-0.956,0.058-1.441,0.171c-1.565,0.367-2.981,1.172-4.208,2.393
		c-0.197,0.196-0.382,0.405-0.567,0.615c-0.824-0.763-1.907-1.211-3.136-1.211c-0.409,0-0.832,0.051-1.255,0.15
		c-1.387,0.325-2.706,1.155-4.099,2.609c-0.482-0.188-1.005-0.289-1.555-0.289c-0.347,0-0.701,0.042-1.054,0.124
		c-2.029,0.477-3.335,2.282-3.212,4.286c-0.021,0.138-0.061,0.371-0.133,0.739c-0.918-1.985-2.718-3.172-4.943-3.172
		c-0.506,0-1.035,0.064-1.571,0.189c-1.326,0.311-2.593,0.963-3.767,1.939c-0.631,0.525-1.227,1.129-1.79,1.791
		c-0.41-0.704-0.934-1.322-1.566-1.825c-1.024-0.811-2.26-1.241-3.573-1.241c-0.484,0-0.98,0.059-1.475,0.175
		c-1.067,0.25-2.091,0.746-3.058,1.469c-0.584-1.783-2.158-2.963-4.048-2.963c-0.362,0-0.733,0.044-1.095,0.129
		c-0.762,0.178-1.47,0.547-2.115,1.106c-0.517,0.451-0.966,1.044-1.449,1.918c-0.202,0.348-0.383,0.758-0.577,1.306
		c-0.162,0.456-0.299,0.904-0.403,1.319c-0.133,0.521-0.263,1.186-0.185,1.917c-0.592,0.619-0.942,1.274-1.112,1.592
		c-0.296,0.556-0.57,1.176-0.83,1.863c-0.02-0.23-0.059-0.458-0.113-0.689c-0.455-1.942-2.081-3.246-4.047-3.246
		c-0.342,0-0.691,0.041-1.033,0.122c-1.516,0.355-2.682,1.448-3.136,2.905c-0.061,0.101-0.14,0.227-0.245,0.386
		c-0.874-0.927-2.094-1.786-3.696-1.786c-0.324,0-0.648,0.037-0.964,0.111c-1.133,0.266-2.031,0.917-2.595,1.782
		c-0.629-0.274-1.326-0.424-2.07-0.424c-0.465,0-0.951,0.058-1.443,0.174c-1.295,0.303-2.5,0.971-3.583,1.985
		c-0.824,0.772-1.574,1.678-2.212,2.668c-0.408,0.621-0.778,1.265-1.1,1.911c-0.158,0.317-0.303,0.636-0.436,0.951l0.421-1.971
		c0.21-0.942,0.318-1.788,0.33-2.587c0.013-0.852-0.057-1.589-0.212-2.25c-0.537-2.291-2.298-3.771-4.487-3.771
		c-0.369,0-0.744,0.044-1.12,0.132c-0.957,0.225-1.927,0.741-3.052,1.624c-0.718,0.563-1.407,1.133-2.059,1.704
		c-1.436,1.265-2.829,2.689-4.174,4.266c-0.045-0.449-0.111-0.855-0.197-1.223c-0.756-3.225-3.08-4.374-5.004-4.374
		c-0.408,0-0.826,0.049-1.242,0.147c-1.52,0.356-3.002,1.324-4.625,3.068c-0.647-2.487-2.575-3.374-4.051-3.374
		c-0.311,0-0.624,0.036-0.925,0.107c-0.772,0.18-1.869,0.664-2.716,1.943c-0.905,1.366-0.872,2.604-0.685,3.405
		c0.179,0.762,0.352,2.72-0.481,7.221c-0.248,1.246-0.563,2.685-0.938,4.278c-0.369,1.574-0.834,3.352-1.393,5.33l-1.028,3.816
		c-0.125,0.474-0.214,0.843-0.27,1.104c-0.167,0.772-0.174,1.464-0.021,2.125c0.47,2.004,2.141,3.35,4.16,3.35
		c0.355,0,0.719-0.043,1.078-0.127c0.754-0.176,2.584-0.854,3.291-3.34c0.419-1.482,0.828-2.8,1.216-3.918
		c0.385-1.11,0.779-2.142,1.17-3.07c0.387-0.918,0.811-1.831,1.261-2.717c0.457-0.901,0.987-1.881,1.598-2.953
		c0.086-0.155,0.174-0.312,0.265-0.47l-0.283,2.209c-0.112,0.866-0.178,1.723-0.196,2.544c-0.023,1.02,0.047,1.865,0.215,2.582
		c0.468,1.993,2.118,3.332,4.106,3.332c0.34,0,0.686-0.041,1.03-0.121c1.255-0.294,2.271-1.04,2.862-2.1
		c0.087-0.156,0.242-0.445,0.493-0.925c0.684-1.358,1.321-2.587,1.893-3.651c0.554-1.03,1.142-2.047,1.747-3.022
		c0.545-0.878,1.186-1.831,1.917-2.848c-0.257,1.439-0.434,2.671-0.537,3.736c-0.177,1.821-0.148,3.092,0.093,4.12
		c0.58,2.476,2.479,4.075,4.839,4.075c0.415,0,0.842-0.051,1.267-0.15c1.225-0.287,2.359-0.939,3.371-1.941
		c0.645-0.64,1.252-1.341,1.804-2.084l0.079-0.11c0.203-0.294,0.421-0.631,0.654-1.003c0.091,0.077,0.18,0.156,0.275,0.229
		c1.102,0.836,2.415,1.278,3.799,1.278c0.526,0,1.067-0.064,1.606-0.19c1.144-0.268,2.292-0.745,3.424-1.4
		c0.499,0.207,1.041,0.331,1.618,0.331c0.345,0,0.697-0.042,1.042-0.123c1.274-0.297,2.322-1.137,2.865-2.278
		c0.225-0.427,0.499-0.902,0.815-1.412c0.242-0.389,0.523-0.808,0.846-1.258c0.393,0.365,0.804,0.687,1.231,0.964
		c1.032,0.671,2.211,1.026,3.409,1.026c0.488,0,0.983-0.058,1.474-0.173c0.847-0.199,1.701-0.579,2.541-1.132
		c0.383-0.252,0.757-0.537,1.125-0.836c0.704,0.364,1.491,0.552,2.342,0.552c0.502,0,1.013-0.062,1.562-0.191
		c1.305-0.306,2.571-0.963,3.762-1.955c0.396-0.329,0.772-0.669,1.134-1.014c1.038,0.585,2.186,0.897,3.43,0.897
		c0.628,0,1.28-0.078,1.938-0.232c1.371-0.321,2.73-0.901,4.037-1.722c0.449-0.282,0.876-0.6,1.292-0.934
		c0.708,0.352,1.506,0.546,2.365,0.546c0.491,0,1.003-0.062,1.521-0.184c1.27-0.297,2.479-0.898,3.62-1.795
		c0.548,0.202,1.141,0.309,1.766,0.309c0.446,0,0.908-0.055,1.372-0.164c0.905-0.212,1.733-0.536,2.479-0.958
		c0.541,0.255,1.142,0.406,1.786,0.406c0.348,0,0.703-0.042,1.053-0.124c1.401-0.328,2.504-1.284,3.039-2.631l1.306-3.132
		c0.361,0.573,0.834,1.061,1.395,1.431c0.751,0.496,1.645,0.758,2.585,0.758c0.421,0,0.858-0.052,1.298-0.156
		c0.456-0.107,1.616-0.381,2.602-1.234c0.668,0.255,1.398,0.391,2.181,0.391c0.542,0,1.107-0.068,1.68-0.202
		c1.401-0.328,2.666-0.986,3.769-1.957c0.886,0.847,2.094,1.346,3.483,1.346c0.533,0,1.082-0.068,1.676-0.207
		c2.661-0.624,5.038-2.395,7.048-5.241C365.252,300.195,365.809,298.048,365.331,296.013z"/>
	<g>
		<g>
			<g>
				<path id="SVGID_x5F_1_x5F_" style="fill:none;" d="M229.29,332.548l137.935-32.32"/>
				<text>				<textPath  xlink:href="#SVGID_x5F_1_x5F_" startOffset="0%">
<tspan  style="fill:#EDEDED; font-family:'OoohBaby-Regular'; font-size:32.6523px;">Mexicanos</tspan>				</textPath>
</text>
			</g>
		</g>
	</g>
</g>
</svg>
